<?xml version="1.0" encoding="UTF-8"?>
<svg xmlns="http://www.w3.org/2000/svg" xmlns:xlink="http://www.w3.org/1999/xlink" width="40px" height="40px" viewBox="0 0 40 40" version="1.1">
<g id="surface1">
<path style=" stroke:none;fill-rule:nonzero;fill:rgb(87.843138%,87.843138%,87.843138%);fill-opacity:1;" d="M 5 2.5 C 3.621094 2.5 2.5 3.621094 2.5 5 L 2.5 35 C 2.5 36.378906 3.621094 37.5 5 37.5 L 35 37.5 C 36.378906 37.5 37.5 36.378906 37.5 35 L 37.5 15 L 25 2.5 Z M 7.5 7.5 L 22.5 7.5 L 22.5 15 C 22.5 16.378906 23.621094 17.5 25 17.5 L 32.5 17.5 L 32.5 32.5 L 7.5 32.5 Z M 7.5 7.5 "/>
<path style=" stroke:none;fill-rule:nonzero;fill:rgb(50.196081%,27.058825%,100%);fill-opacity:1;" d="M 25 27.5 L 30 27.5 L 30 30 L 25 30 Z M 25 27.5 "/>
<path style=" stroke:none;fill-rule:nonzero;fill:rgb(100%,89.019608%,27.058825%);fill-opacity:1;" d="M 10 15 L 15 15 L 15 17.5 L 10 17.5 Z M 10 15 "/>
<path style=" stroke:none;fill-rule:nonzero;fill:rgb(50.196081%,100%,27.058825%);fill-opacity:1;" d="M 20 20 L 30 20 L 30 22.5 L 20 22.5 Z M 20 20 "/>
<path style=" stroke:none;fill-rule:nonzero;fill:rgb(27.058825%,84.313726%,100%);fill-opacity:1;" d="M 17.5 15 L 20 15 L 20 17.5 L 17.5 17.5 Z M 17.5 15 "/>
<path style=" stroke:none;fill-rule:nonzero;fill:rgb(100%,27.058825%,58.823532%);fill-opacity:1;" d="M 10 27.5 L 22.5 27.5 L 22.5 30 L 10 30 Z M 10 27.5 "/>
<path style=" stroke:none;fill-rule:nonzero;fill:rgb(100%,27.058825%,27.058825%);fill-opacity:1;" d="M 10 10 L 17.5 10 L 17.5 12.5 L 10 12.5 Z M 10 10 "/>
<path style=" stroke:none;fill-rule:nonzero;fill:rgb(27.058825%,100%,63.529414%);fill-opacity:1;" d="M 10 20 L 17.5 20 L 17.5 22.5 L 10 22.5 Z M 10 20 "/>
</g>
</svg>
